# xmcd
#
# Track frame offsets:
#	150
#	12143
#	23769
#	38061
#	52805
#	66690
#	79439
#	89414
#	98499
#	110009
#	120645
#	134361
#	149220
#	156808
#	169896
#	179450
#	202206
#	210748
#	218908
#	225439
#	235584
#	244407
#
# Disc length: 3431
#
# Revision: 2
# Processed by: cddbd v1.5.1PL0 Copyright (c) Steve Scherf et al.
# Submitted via: Kscd 1.3.3
# Normalized: r1:DSETVAR1
#
DISCID=410d6516
DTITLE=Various Artist - Gospel music - 100 and plus [CD2 of 5)
DYEAR=1900
DGENRE=
TTITLE0=Mahalia Jackson - Nobody knows the trouble I've seen
TTITLE1=Mahalia Jackson - Get away Jordan
TTITLE2=Mahalia Jackson - Go tell it on the mountain
TTITLE3=Mahalia Jackson - Come to Jesus
TTITLE4=Mahalia Jackson - Jesus is with me
TTITLE5=Golden Gate Quartet - Preacher and the bear
TTITLE6=Golden Gate Quartet - When the saints go marching home
TTITLE7=Golden Gate Quartet - Rock my soul
TTITLE8=Golden Gate Quartet - Noah
TTITLE9=Golden Gate Quartet - Go where I send Thee
TTITLE10=Jessye Norman - Motherless child
TTITLE11=Jessye Norman - My Lord what a morning
TTITLE12=Jessye Norman - What a beautiful city
TTITLE13=Jessye Norman - There is a balm in Gilead
TTITLE14=Jessye Norman - Every time I feel the Spirit
TTITLE15=Southern Mission Choir - What are they doing in heaven
TTITLE16=Southern Mission Choir - Shine for Jesus
TTITLE17=Southern Mission Choir - I saw the light
TTITLE18=Southern Mission Choir - Oh, the joy that came to me
TTITLE19=Southern Mission Choir - Blow ye the trumpet of Zion
TTITLE20=Southern Mission Choir - Seeking for me
TTITLE21=Sister Rosetta Tharpe - Strange things happening everyday
EXTD=
EXTT0=
EXTT1=
EXTT2=
EXTT3=
EXTT4=
EXTT5=
EXTT6=
EXTT7=
EXTT8=
EXTT9=
EXTT10=
EXTT11=
EXTT12=
EXTT13=
EXTT14=
EXTT15=
EXTT16=
EXTT17=
EXTT18=
EXTT19=
EXTT20=
EXTT21=
PLAYORDER=
